HIERARCHY
ROOT pelvis
{
	OFFSET 0.000000 0.000000 0.712444
	CHANNELS 6 Xposition Yposition Zposition Xrotation Yrotation Zrotation
	JOINT spine
	{
		OFFSET 0.000000 0.000000 0.000000
		CHANNELS 6 Xposition Yposition Zposition Xrotation Yrotation Zrotation
		JOINT spine.001
		{
			OFFSET 0.000000 -0.013285 0.253490
			CHANNELS 3 Xrotation Yrotation Zrotation
			JOINT neck
			{
				OFFSET 0.000000 0.030935 0.251946
				CHANNELS 6 Xposition Yposition Zposition Xrotation Yrotation Zrotation
				JOINT face
				{
					OFFSET 0.000000 0.003373 0.193254
					CHANNELS 6 Xposition Yposition Zposition Xrotation Yrotation Zrotation
					End Site
					{
						OFFSET 0.000000 -0.029365 -0.007386
					}
				}
			}
			JOINT shoulder.L
			{
				OFFSET 0.000000 0.030935 0.251946
				CHANNELS 6 Xposition Yposition Zposition Yrotation Xrotation Zrotation
				JOINT upper_arm.L
				{
					OFFSET 0.153480 0.000000 0.000000
					CHANNELS 6 Xposition Yposition Zposition Xrotation Yrotation Zrotation
					JOINT forearm.L
					{
						OFFSET 0.244461 0.000110 0.000915
						CHANNELS 6 Xposition Yposition Zposition Xrotation Yrotation Zrotation
						End Site
						{
							OFFSET 0.230673 -0.003925 -0.001262
						}
					}
				}
			}
			JOINT shoulder.R
			{
				OFFSET 0.000000 0.030935 0.251946
				CHANNELS 6 Xposition Yposition Zposition Yrotation Xrotation Zrotation
				JOINT upper_arm.R
				{
					OFFSET -0.153480 0.000000 0.000000
					CHANNELS 6 Xposition Yposition Zposition Xrotation Yrotation Zrotation
					JOINT forearm.R
					{
						OFFSET -0.246364 0.000110 0.000915
						CHANNELS 6 Xposition Yposition Zposition Xrotation Yrotation Zrotation
						End Site
						{
							OFFSET -0.233754 -0.003979 -0.001262
						}
					}
				}
			}
		}
	}
	JOINT pelvis.L
	{
		OFFSET 0.000000 0.000000 0.000000
		CHANNELS 6 Xposition Yposition Zposition Yrotation Xrotation Zrotation
		End Site
		{
			OFFSET 0.102775 0.000000 0.000000
		}
	}
	JOINT pelvis.R
	{
		OFFSET 0.000000 0.000000 0.000000
		CHANNELS 6 Xposition Yposition Zposition Yrotation Xrotation Zrotation
		End Site
		{
			OFFSET -0.102775 0.000000 0.000000
		}
	}
	JOINT thigh.L
	{
		OFFSET 0.102775 0.000000 0.000000
		CHANNELS 6 Xposition Yposition Zposition Xrotation Yrotation Zrotation
		JOINT shin.L
		{
			OFFSET 0.017753 0.000000 -0.338753
			CHANNELS 6 Xposition Yposition Zposition Xrotation Yrotation Zrotation
			JOINT foot.L
			{
				OFFSET 0.015777 0.000000 -0.301042
				CHANNELS 3 Xrotation Yrotation Zrotation
				End Site
				{
					OFFSET 0.014599 -0.148854 -0.062506
				}
			}
			JOINT heel.02.L
			{
				OFFSET 0.015777 0.000000 -0.301042
				CHANNELS 3 Xrotation Yrotation Zrotation
				End Site
				{
					OFFSET -0.069444 0.032924 -0.075509
				}
			}
		}
	}
	JOINT thigh.R
	{
		OFFSET -0.102775 0.000000 0.000000
		CHANNELS 6 Xposition Yposition Zposition Xrotation Yrotation Zrotation
		JOINT shin.R
		{
			OFFSET -0.017866 0.000000 -0.340896
			CHANNELS 6 Xposition Yposition Zposition Xrotation Yrotation Zrotation
			JOINT foot.R
			{
				OFFSET -0.016267 0.000000 -0.310402
				CHANNELS 3 Xrotation Yrotation Zrotation
				End Site
				{
					OFFSET -0.015831 -0.161416 -0.067781
				}
			}
			JOINT heel.02.R
			{
				OFFSET -0.016267 0.000000 -0.310402
				CHANNELS 3 Xrotation Yrotation Zrotation
				End Site
				{
					OFFSET 0.072525 0.032924 -0.064136
				}
			}
		}
	}
}
MOTION
Frames: 8
Frame Time: 0.041667
0.060299 0.012724 0.704457 -0.000000 0.000000 2.538802 0.000000 0.000000 0.000000 -8.537933 3.402708 0.434149 9.987748 0.415479 3.385954 0.000000 0.030935 0.251946 11.785193 -3.084760 -2.102599 -0.000000 0.003373 0.193254 3.091039 0.000000 0.000000 -0.000000 0.030935 0.251946 -1.213180 0.001576 0.148931 0.153480 0.000000 0.000000 27.022790 77.753501 -33.193189 0.244461 0.000110 0.000915 2.172421 11.629101 -20.193615 -0.000000 0.030935 0.251946 -1.159998 0.001441 0.142412 -0.153480 0.000000 -0.000000 12.995391 -75.999474 16.609263 -0.246364 0.000110 0.000915 2.038702 -9.307963 24.257150 0.000000 -0.000000 0.000000 2.360157 0.000002 -0.000097 0.000000 -0.000000 0.000000 2.360190 -0.000000 0.000000 0.102687 -0.000000 -0.004232 0.572146 8.323764 -0.011694 0.017753 -0.000000 -0.338753 2.150131 1.980220 0.075601 -5.569955 -5.744156 10.707914 1.705692 -25.862481 -15.803615 -0.102687 -0.000000 0.004232 0.296568 1.077134 -0.018321 -0.017866 -0.000000 -0.340896 6.229015 -2.617844 -0.184525 -6.913619 5.381015 -9.401804 -3.273537 28.723459 17.395648 
0.059467 0.011641 0.700900 -0.000000 0.000000 2.681220 0.000000 0.000000 0.000000 -8.705526 3.545250 0.457620 9.990000 0.375141 3.056782 0.000000 0.030935 0.251946 11.830032 -3.273915 -2.379481 -0.000000 0.003373 0.193254 3.040912 -0.000000 -0.000001 -0.000000 0.030935 0.251946 -1.323532 0.001878 0.162549 0.153480 -0.000000 -0.000000 27.635254 77.804980 -33.900616 0.244461 0.000110 0.000915 2.078114 11.329867 -19.832627 -0.000000 0.030935 0.251946 -1.270261 0.001730 0.156014 -0.153480 0.000000 0.000000 13.112858 -75.880922 16.793009 -0.246364 0.000110 0.000915 1.984233 -9.245873 23.754971 0.000000 0.000000 0.000000 2.799624 0.000001 -0.000053 0.000000 0.000000 0.000000 2.799656 -0.000000 0.000000 0.102652 -0.000000 -0.005020 0.257008 8.049336 -0.004632 0.017753 -0.000000 -0.338753 2.996432 2.407862 0.094189 -5.263467 -6.138573 11.653123 1.043470 -25.968244 -15.363312 -0.102652 -0.000000 0.005020 0.314258 0.954823 -0.019081 -0.017866 -0.000000 -0.340896 6.488958 -2.375803 -0.205962 -7.690420 5.300185 -8.928728 -3.790384 29.058688 17.176421 
0.058925 0.011013 0.698969 -0.000000 0.000000 2.814778 -0.000000 0.000000 -0.000000 -8.808239 3.639626 0.473128 9.991657 0.343526 2.799230 0.000000 0.030935 0.251946 11.871676 -3.421773 -2.567707 -0.000000 0.003373 0.193254 2.988390 0.000000 0.000003 -0.000000 0.030935 0.251946 -1.396516 0.002089 0.171410 0.153480 0.000000 -0.000000 28.142654 77.851808 -34.482610 0.244461 0.000110 0.000915 1.998262 11.065929 -19.531324 -0.000000 0.030935 0.251946 -1.343290 0.001934 0.164898 -0.153480 0.000000 -0.000000 13.288161 -75.743676 17.056663 -0.246364 0.000110 0.000915 1.958023 -9.274622 23.342836 0.000000 0.000000 0.000000 3.017888 0.000000 -0.000010 0.000000 0.000000 0.000000 3.017854 0.000000 0.000000 0.102632 -0.000000 -0.005411 -0.011641 7.839187 0.000187 0.017753 0.000000 -0.338753 3.653941 2.728653 0.104638 -5.026040 -6.391109 12.283462 0.489676 -26.038411 -14.979858 -0.102632 -0.000000 0.005411 0.321110 0.845026 -0.019189 -0.017866 0.000000 -0.340896 6.708161 -2.197783 -0.223364 -8.286551 5.306478 -8.706457 -4.192375 29.309079 16.995363 
0.058751 0.010899 0.698576 -0.000000 0.000000 2.921452 -0.000000 0.000000 0.000000 -8.840182 3.674427 0.478697 9.992618 0.324498 2.644077 0.000000 0.030935 0.251946 11.905563 -3.518438 -2.688271 -0.000000 0.003373 0.193254 2.946059 0.000000 0.000001 0.000000 0.030935 0.251946 -1.431923 0.002197 0.175831 0.153480 0.000000 -0.000000 28.562840 77.890787 -34.963462 0.244461 0.000110 0.000915 1.938238 10.861428 -19.306710 0.000000 0.030935 0.251946 -1.378652 0.002038 0.169292 -0.153479 0.000000 0.000000 13.530408 -75.586650 17.412760 -0.246364 0.000110 0.000915 1.957388 -9.385624 23.023401 0.000000 0.000000 0.000000 3.024077 -0.000000 -0.000001 0.000000 0.000000 0.000000 3.024044 -0.000000 0.000000 0.102632 0.000000 -0.005422 -0.210302 7.720970 0.003181 0.017753 0.000000 -0.338753 4.070936 2.913839 0.110003 -4.897655 -6.482668 12.534006 0.095157 -26.084750 -14.702817 -0.102632 0.000000 0.005422 0.305125 0.763920 -0.018019 -0.017866 0.000000 -0.340896 6.893077 -2.096158 -0.235655 -8.676258 5.384571 -8.705066 -4.440851 29.425261 16.841139 
0.058798 0.011018 0.698546 -0.000000 0.000000 2.982577 -0.000000 0.000000 0.000000 -8.838311 3.671199 0.478214 9.992864 0.316408 2.577915 0.000000 0.030935 0.251946 11.927544 -3.580137 -2.808319 0.000000 0.003373 0.193254 2.923858 -0.000000 0.000003 -0.000000 0.030935 0.251946 -1.450563 0.002255 0.178051 0.153480 0.000000 -0.000000 28.948288 77.913990 -35.411020 0.244461 0.000110 0.000915 1.897978 10.727201 -19.144718 -0.000000 0.030935 0.251946 -1.397293 0.002093 0.171495 -0.153480 0.000000 -0.000000 13.805653 -75.425581 17.814043 -0.246364 0.000110 0.000915 1.960501 -9.503348 22.739330 0.000000 0.000000 0.000000 2.976194 -0.000000 -0.000018 0.000000 0.000000 0.000000 2.976227 -0.000000 0.000000 0.102636 -0.000000 -0.005336 -0.344460 7.672009 0.005061 0.017753 -0.000000 -0.338753 4.319123 3.009691 0.113099 -4.858096 -6.496018 12.580872 -0.169539 -26.117047 -14.517183 -0.102636 0.000000 0.005336 0.266249 0.718176 -0.015619 -0.017866 -0.000000 -0.340896 7.066917 -2.038462 -0.245175 -8.942144 5.448072 -8.723279 -4.598420 29.440332 16.678449 
0.058860 0.011112 0.698254 -0.000000 0.000000 2.994158 -0.000000 -0.000000 -0.000000 -8.835174 3.657337 0.476306 9.993048 0.315076 2.567198 0.000000 0.030935 0.251946 11.936463 -3.626514 -2.961376 0.000000 0.003373 0.193254 2.898056 0.000000 0.000003 -0.000000 0.030935 0.251946 -1.466466 0.002302 0.179971 0.153480 0.000000 -0.000000 29.246785 77.916551 -35.766306 0.244461 0.000110 0.000915 1.875347 10.658984 -19.036798 -0.000000 0.030935 0.251946 -1.413194 0.002139 0.173515 -0.153480 0.000000 -0.000000 14.075237 -75.278950 18.205413 -0.246364 0.000110 0.000915 1.954490 -9.582728 22.453077 0.000000 -0.000000 -0.000000 2.965016 -0.000001 0.000031 0.000000 -0.000000 -0.000000 2.964981 -0.000000 0.000000 0.102637 -0.000000 -0.005316 -0.424987 7.653950 0.006177 0.017753 -0.000000 -0.338753 4.469981 3.065092 0.114890 -4.862777 -6.508184 12.603596 -0.362662 -26.113470 -14.361554 -0.102637 -0.000000 0.005316 0.220150 0.697779 -0.012875 -0.017866 -0.000000 -0.340896 7.225748 -1.992950 -0.253571 -9.143907 5.449772 -8.648749 -4.736615 29.421504 16.500019 
0.058829 0.011141 0.697929 -0.000000 0.000000 2.970762 0.000000 0.000000 0.000000 -8.836890 3.646237 0.474915 9.992914 0.316705 2.580517 0.000000 0.030935 0.251946 11.937735 -3.664505 -3.130299 -0.000000 0.003373 0.193254 2.829609 -0.000000 -0.000001 0.000000 0.030935 0.251946 -1.480133 0.002347 0.181705 0.153480 0.000000 -0.000000 29.373440 77.901101 -35.926792 0.244461 0.000110 0.000915 1.865927 10.636962 -18.978282 0.000000 0.030935 0.251946 -1.426951 0.002182 0.175158 -0.153480 0.000000 -0.000000 14.328246 -75.156410 18.569432 -0.246364 0.000110 0.000915 1.942977 -9.634523 22.176813 0.000000 0.000000 0.000000 2.972102 -0.000001 0.000027 0.000000 0.000000 0.000000 2.972102 -0.000000 0.000000 0.102636 0.000000 -0.005329 -0.469044 7.642113 0.006768 0.017753 -0.000000 -0.338753 4.561258 3.099971 0.115847 -4.883400 -6.534299 12.647161 -0.517007 -26.068493 -14.206017 -0.102636 0.000000 0.005329 0.178661 0.683347 -0.010426 -0.017866 0.000000 -0.340896 7.356665 -1.950162 -0.260926 -9.292250 5.416255 -8.528600 -4.876872 29.410945 16.327984 
0.058706 0.011180 0.697833 -0.000000 0.000000 2.931035 0.000000 0.000000 0.000000 -8.838522 3.638571 0.473968 9.992771 0.319367 2.601989 0.000000 0.030935 0.251946 11.941898 -3.692754 -3.290884 0.000000 0.003373 0.193254 2.718388 0.000000 -0.000003 0.000000 0.030935 0.251946 -1.490843 0.002382 0.183054 0.153480 0.000000 0.000000 29.366938 77.870577 -35.937204 0.244461 0.000110 0.000915 1.862814 10.638103 -18.941626 0.000000 0.030935 0.251946 -1.437618 0.002216 0.176503 -0.153480 0.000000 0.000000 14.556612 -75.060910 18.894094 -0.246364 0.000110 0.000915 1.933495 -9.679351 21.945895 0.000000 -0.000000 0.000000 2.968242 -0.000001 0.000050 0.000000 -0.000000 0.000000 2.968275 -0.000000 0.000000 0.102637 0.000000 -0.005322 -0.501519 7.625968 0.007166 0.017753 -0.000000 -0.338753 4.625364 3.126617 0.116402 -4.913449 -6.558233 12.681543 -0.635239 -26.024508 -14.079661 -0.102637 -0.000000 0.005322 0.137242 0.658556 -0.007979 -0.017866 -0.000000 -0.340896 7.467926 -1.904256 -0.267877 -9.401627 5.391234 -8.439849 -5.003266 29.408356 16.180257 
